<svg width="21" height="20" viewBox="0 0 21 20" fill="none" xmlns="http://www.w3.org/2000/svg">
<path d="M4.75358 4.16667H9.75358C10.2119 4.16667 10.5869 3.79167 10.5869 3.33333C10.5869 2.875 10.2119 2.5 9.75358 2.5H4.75358C3.83691 2.5 3.08691 3.25 3.08691 4.16667V15.8333C3.08691 16.75 3.83691 17.5 4.75358 17.5H9.75358C10.2119 17.5 10.5869 17.125 10.5869 16.6667C10.5869 16.2083 10.2119 15.8333 9.75358 15.8333H4.75358V4.16667Z" fill="#E04F4F"/>
<path d="M17.7952 9.70833L15.4702 7.38333C15.2036 7.11667 14.7536 7.3 14.7536 7.675V9.16667H8.92025C8.46191 9.16667 8.08691 9.54167 8.08691 10C8.08691 10.4583 8.46191 10.8333 8.92025 10.8333H14.7536V12.325C14.7536 12.7 15.2036 12.8833 15.4619 12.6167L17.7869 10.2917C17.9536 10.1333 17.9536 9.86667 17.7952 9.70833Z" fill="#E04F4F"/>
</svg>
