<svg width="25" height="24" viewBox="0 0 25 24" fill="none" xmlns="http://www.w3.org/2000/svg">
<path d="M9.99386 3.94C10.0839 3.398 10.5539 3 11.1039 3H13.6969C14.2469 3 14.7169 3.398 14.8069 3.94L15.0199 5.221C15.0829 5.595 15.3329 5.907 15.6649 6.091C15.7389 6.131 15.8119 6.174 15.8849 6.218C16.2099 6.414 16.6049 6.475 16.9599 6.342L18.1769 5.886C18.4263 5.79221 18.7009 5.78998 18.9517 5.87971C19.2026 5.96945 19.4135 6.14531 19.5469 6.376L20.8429 8.623C20.9759 8.8537 21.0228 9.12413 20.9752 9.38617C20.9276 9.6482 20.7886 9.88485 20.5829 10.054L19.5799 10.881C19.2869 11.122 19.1419 11.494 19.1499 11.873C19.1513 11.958 19.1513 12.043 19.1499 12.128C19.1419 12.506 19.2869 12.878 19.5799 13.119L20.5839 13.946C21.0079 14.296 21.1179 14.901 20.8439 15.376L19.5459 17.623C19.4127 17.8536 19.2021 18.0296 18.9514 18.1195C18.7007 18.2094 18.4262 18.2074 18.1769 18.114L16.9599 17.658C16.6049 17.525 16.2099 17.586 15.8839 17.782C15.8114 17.8261 15.738 17.8688 15.6639 17.91C15.3329 18.093 15.0829 18.405 15.0199 18.779L14.8069 20.06C14.7169 20.603 14.2469 21 13.6969 21H11.1029C10.5529 21 10.0839 20.602 9.99286 20.06L9.77986 18.779C9.71786 18.405 9.46786 18.093 9.13586 17.909C9.06171 17.8681 8.98837 17.8258 8.91586 17.782C8.59086 17.586 8.19586 17.525 7.83986 17.658L6.62286 18.114C6.37359 18.2075 6.09923 18.2096 5.84856 18.1199C5.5979 18.0302 5.38717 17.8545 5.25386 17.624L3.95686 15.377C3.82381 15.1463 3.77691 14.8759 3.82452 14.6138C3.87213 14.3518 4.01116 14.1152 4.21686 13.946L5.22086 13.119C5.51286 12.879 5.65786 12.506 5.65086 12.128C5.6493 12.043 5.6493 11.958 5.65086 11.873C5.65786 11.493 5.51286 11.122 5.22086 10.881L4.21686 10.054C4.0114 9.88489 3.87254 9.64843 3.82494 9.38662C3.77733 9.12481 3.82408 8.8546 3.95686 8.624L5.25386 6.377C5.38705 6.14614 5.59788 5.97006 5.84878 5.88014C6.09968 5.79021 6.37435 5.79229 6.62386 5.886L7.83986 6.342C8.19586 6.475 8.59086 6.414 8.91586 6.218C8.98786 6.174 9.06186 6.132 9.13586 6.09C9.46786 5.907 9.71786 5.595 9.77986 5.221L9.99386 3.94Z" stroke="#6C737F" stroke-width="1.5" stroke-linecap="round" stroke-linejoin="round"/>
<path d="M15.3997 12C15.3997 12.7956 15.0836 13.5587 14.521 14.1213C13.9584 14.6839 13.1953 15 12.3997 15C11.604 15 10.8409 14.6839 10.2783 14.1213C9.71573 13.5587 9.39966 12.7956 9.39966 12C9.39966 11.2044 9.71573 10.4413 10.2783 9.87868C10.8409 9.31607 11.604 9 12.3997 9C13.1953 9 13.9584 9.31607 14.521 9.87868C15.0836 10.4413 15.3997 11.2044 15.3997 12Z" stroke="#6C737F" stroke-width="1.5" stroke-linecap="round" stroke-linejoin="round"/>
</svg>
